External Loads File
version=1
nRows=79
nColumns=13
Range=5.000000e-03-10 seconds
endheader
time 	forceRightX 	forceRightY 	forceRightZ 	pointRightX 	pointRightY 	pointRightZ 	forceLeftX 	forceLeftY 	forceLeftZ 	pointLeftX 	pointLeftY 	pointLeftZ 		
0.005000 39.215691 224.042671 -0.000000 0.147834 0.177712 -0.165324 13.481221 159.071981 -0.000000 0.318000 0.470848 -0.415721
0.010000 39.459420 223.633326 -0.000000 0.147889 0.177666 -0.165330 12.194681 157.592243 -0.000000 0.317971 0.470860 -0.415719
0.015000 39.710980 223.281036 -0.000000 0.147942 0.177650 -0.165319 10.940556 156.101579 -0.000000 0.317935 0.470875 -0.415717
0.020000 39.951623 222.998078 -0.000000 0.148011 0.177593 -0.165317 9.795169 154.713674 -0.000000 0.317896 0.470825 -0.415726
0.025000 40.155559 222.809147 -0.000000 0.148118 0.177594 -0.165382 8.784772 153.492295 -0.000000 0.317871 0.470887 -0.415762
0.030000 40.402154 222.716304 -0.000000 0.148174 0.177584 -0.165371 7.964691 152.426733 -0.000000 0.317811 0.470822 -0.415745
0.035000 40.609603 222.711044 -0.000000 0.148234 0.177554 -0.165371 7.253273 151.452797 -0.000000 0.317784 0.470850 -0.415749
0.040000 40.759164 222.718804 -0.000000 0.148295 0.177520 -0.165371 6.621746 150.503089 -0.000000 0.317749 0.470853 -0.415741
0.045000 40.806364 222.660076 -0.000000 0.148345 0.177483 -0.165373 6.044455 149.554180 -0.000000 0.317726 0.470889 -0.415737
0.050000 40.723537 222.507903 -0.000000 0.148401 0.177440 -0.165386 5.511032 148.627814 -0.000000 0.317679 0.470900 -0.415739
0.055000 40.565145 222.285624 -0.000000 0.148462 0.177416 -0.165379 5.048590 147.767477 -0.000000 0.317659 0.470913 -0.415732
0.060000 40.362190 222.036688 -0.000000 0.148515 0.177387 -0.165379 4.650105 147.013893 -0.000000 0.317635 0.470941 -0.415732
0.065000 40.167151 221.779193 -0.000000 0.148561 0.177366 -0.165397 4.328733 146.397355 -0.000000 0.317607 0.470965 -0.415718
0.070000 40.016637 221.524818 -0.000000 0.148611 0.177335 -0.165404 4.093476 145.928313 -0.000000 0.317596 0.470976 -0.415728
0.075000 39.915440 221.299216 -0.000000 0.148658 0.177311 -0.165400 3.914939 145.579918 -0.000000 0.317563 0.470997 -0.415732
0.080000 39.898842 221.118521 -0.000000 0.148704 0.177304 -0.165402 3.775091 145.304316 -0.000000 0.317532 0.471029 -0.415734
0.085000 39.964421 220.976347 -0.000000 0.148756 0.177290 -0.165409 3.654524 145.062961 -0.000000 0.317511 0.471034 -0.415731
0.090000 40.058867 220.831685 -0.000000 0.148793 0.177271 -0.165408 3.542473 144.844368 -0.000000 0.317488 0.471069 -0.415734
0.095000 40.125296 220.613573 -0.000000 0.148827 0.177247 -0.165405 3.457927 144.666127 -0.000000 0.317461 0.471092 -0.415746
0.100000 40.111198 220.253915 -0.000000 0.148863 0.177240 -0.165405 3.415866 144.540285 -0.000000 0.317441 0.471114 -0.415749
0.105000 39.976997 219.714133 -0.000000 0.148898 0.177222 -0.165411 3.410467 144.455272 -0.000000 0.317421 0.471130 -0.415739
0.110000 39.754941 218.993503 -0.000000 0.148911 0.177207 -0.165413 3.459493 144.395330 -0.000000 0.317409 0.471133 -0.415742
0.115000 39.476043 218.149657 -0.000000 0.148913 0.177216 -0.165403 3.550578 144.331705 -0.000000 0.317397 0.471142 -0.415736
0.120000 39.183941 217.267801 -0.000000 0.148930 0.177209 -0.165401 3.659687 144.221847 -0.000000 0.317404 0.471145 -0.415726
0.125000 38.952184 216.411948 -0.000000 0.148911 0.177231 -0.165401 3.803520 144.057391 -0.000000 0.317411 0.471140 -0.415728
0.130000 38.765590 215.630476 -0.000000 0.148887 0.177224 -0.165397 3.975897 143.882682 -0.000000 0.317416 0.471132 -0.415730
0.135000 38.668068 214.941956 -0.000000 0.148854 0.177256 -0.165396 4.226355 143.761033 -0.000000 0.317445 0.471117 -0.415721
0.140000 38.634460 214.366228 -0.000000 0.148808 0.177283 -0.165395 4.549800 143.740427 -0.000000 0.317484 0.471108 -0.415723
0.145000 38.675588 213.898676 -0.000000 0.148737 0.177317 -0.165395 4.942625 143.828821 -0.000000 0.317526 0.471050 -0.415711
0.150000 38.747858 213.520071 -0.000000 0.148666 0.177353 -0.165408 5.351785 144.003176 -0.000000 0.317590 0.471006 -0.415716
0.155000 38.825383 213.201803 -0.000000 0.148590 0.177394 -0.165408 5.730635 144.219876 -0.000000 0.317652 0.470962 -0.415713
0.160000 38.925187 212.939452 -0.000000 0.148496 0.177471 -0.165415 6.048761 144.425847 -0.000000 0.317733 0.470918 -0.415709
0.165000 39.046390 212.779894 -0.000000 0.148376 0.177542 -0.165429 6.260007 144.590143 -0.000000 0.317829 0.470877 -0.415708
0.170000 39.234739 212.790663 -0.000000 0.148220 0.177626 -0.165434 6.366004 144.712255 -0.000000 0.317936 0.470818 -0.415699
0.175000 39.509963 213.039727 -0.000000 0.148056 0.177729 -0.165437 6.382622 144.819518 -0.000000 0.318069 0.470751 -0.415710
0.180000 39.858960 213.559052 -0.000000 0.147871 0.177819 -0.165454 6.340254 144.961996 -0.000000 0.318193 0.470684 -0.415711
0.185000 40.259415 214.319733 -0.000000 0.147708 0.177944 -0.165473 6.272082 145.169975 -0.000000 0.318309 0.470609 -0.415714
0.190000 40.690810 215.242091 -0.000000 0.147492 0.178056 -0.165485 6.200020 145.435720 -0.000000 0.318412 0.470553 -0.415705
0.195000 41.090557 216.233562 -0.000000 0.147300 0.178122 -0.165472 6.122876 145.760009 -0.000000 0.318541 0.470474 -0.415725
0.200000 41.404292 217.207467 -0.000000 0.147125 0.178195 -0.165476 6.052123 146.161356 -0.000000 0.318642 0.470394 -0.415734
0.205000 41.636145 218.086501 -0.000000 0.146959 0.178272 -0.165477 6.022764 146.643715 -0.000000 0.318758 0.470322 -0.415741
0.210000 41.780451 218.817777 -0.000000 0.146810 0.178354 -0.165473 6.040584 147.193094 -0.000000 0.318862 0.470229 -0.415755
0.215000 41.837614 219.380308 -0.000000 0.146667 0.178442 -0.165484 6.094150 147.778381 -0.000000 0.318948 0.470168 -0.415750
0.220000 41.850444 219.789236 -0.000000 0.146526 0.178509 -0.165476 6.184721 148.351753 -0.000000 0.319038 0.470109 -0.415748
0.225000 41.823121 220.092233 -0.000000 0.146413 0.178559 -0.165475 6.283977 148.865530 -0.000000 0.319115 0.470068 -0.415732
0.230000 41.814399 220.308471 -0.000000 0.146302 0.178592 -0.165473 6.404903 149.281315 -0.000000 0.319207 0.470024 -0.415751
0.235000 41.787316 220.432783 -0.000000 0.146212 0.178642 -0.165482 6.510018 149.584952 -0.000000 0.319258 0.469993 -0.415742
0.240000 41.749899 220.428024 -0.000000 0.146133 0.178682 -0.165478 6.605771 149.776475 -0.000000 0.319306 0.469948 -0.415736
0.245000 41.674397 220.283500 -0.000000 0.146078 0.178724 -0.165490 6.674656 149.856822 -0.000000 0.319349 0.469905 -0.415748
0.250000 41.555409 220.022932 -0.000000 0.146016 0.178752 -0.165507 6.714144 149.830221 -0.000000 0.319379 0.469870 -0.415746
0.255000 41.396936 219.684910 -0.000000 0.145964 0.178787 -0.165502 6.723807 149.698207 -0.000000 0.319407 0.469836 -0.415760
0.260000 41.174221 219.305602 -0.000000 0.145940 0.178799 -0.165513 6.673432 149.459147 -0.000000 0.319441 0.469824 -0.415760
0.265000 40.928670 218.904018 -0.000000 0.145907 0.178836 -0.165519 6.576784 149.128320 -0.000000 0.319457 0.469806 -0.415759
0.270000 40.669989 218.515882 -0.000000 0.145876 0.178844 -0.165529 6.418310 148.727635 -0.000000 0.319478 0.469787 -0.415771
0.275000 40.416009 218.186908 -0.000000 0.145860 0.178845 -0.165524 6.176211 148.264833 -0.000000 0.319496 0.469785 -0.415768
0.280000 40.197989 217.958408 -0.000000 0.145859 0.178855 -0.165522 5.853771 147.751765 -0.000000 0.319502 0.469773 -0.415765
0.285000 40.013560 217.866573 -0.000000 0.145863 0.178853 -0.165520 5.460924 147.204680 -0.000000 0.319495 0.469777 -0.415767
0.290000 39.881093 217.927163 -0.000000 0.145870 0.178849 -0.165525 5.042173 146.638690 -0.000000 0.319491 0.469778 -0.415764
0.295000 39.773699 218.136559 -0.000000 0.145889 0.178843 -0.165525 4.624659 146.087046 -0.000000 0.319476 0.469803 -0.415766
0.300000 39.673805 218.453311 -0.000000 0.145939 0.178810 -0.165511 4.237603 145.587252 -0.000000 0.319441 0.469823 -0.415758
0.305000 39.615748 218.798670 -0.000000 0.145976 0.178791 -0.165508 3.930992 145.161249 -0.000000 0.319396 0.469844 -0.415751
0.310000 39.548475 219.099762 -0.000000 0.146041 0.178751 -0.165516 3.697385 144.823050 -0.000000 0.319349 0.469877 -0.415758
0.315000 39.433001 219.286574 -0.000000 0.146132 0.178720 -0.165496 3.544839 144.582352 -0.000000 0.319271 0.469938 -0.415744
0.320000 39.263222 219.304241 -0.000000 0.146227 0.178662 -0.165504 3.504911 144.455640 -0.000000 0.319186 0.469988 -0.415755
0.325000 39.006059 219.143178 -0.000000 0.146347 0.178606 -0.165501 3.574100 144.462697 -0.000000 0.319071 0.470051 -0.415755
0.330000 38.716297 218.825387 -0.000000 0.146471 0.178555 -0.165495 3.772623 144.605107 -0.000000 0.318961 0.470098 -0.415742
0.335000 38.386338 218.416597 -0.000000 0.146614 0.178479 -0.165498 4.055397 144.874132 -0.000000 0.318832 0.470188 -0.415755
0.340000 38.073529 217.967050 -0.000000 0.146776 0.178408 -0.165504 4.411374 145.247365 -0.000000 0.318664 0.470275 -0.415736
0.345000 37.823890 217.488609 -0.000000 0.146943 0.178307 -0.165508 4.828910 145.688983 -0.000000 0.318521 0.470382 -0.415739
0.350000 37.623764 216.966032 -0.000000 0.147118 0.178195 -0.165506 5.284165 146.181636 -0.000000 0.318363 0.470486 -0.415724
0.355000 37.474402 216.377574 -0.000000 0.147301 0.178117 -0.165492 5.783562 146.720822 -0.000000 0.318190 0.470569 -0.415720
0.360000 37.312276 215.736638 -0.000000 0.147519 0.178021 -0.165498 6.283380 147.281034 -0.000000 0.318016 0.470686 -0.415730
0.365000 37.125301 215.078096 -0.000000 0.147751 0.177845 -0.165514 6.758910 147.815457 -0.000000 0.317838 0.470776 -0.415725
0.370000 36.948169 214.440404 -0.000000 0.147970 0.177701 -0.165509 7.209764 148.278635 -0.000000 0.317676 0.470877 -0.415745
0.375000 36.750382 213.858131 -0.000000 0.148184 0.177586 -0.165509 7.599846 148.652011 -0.000000 0.317488 0.470992 -0.415739
0.380000 36.529235 213.337294 -0.000000 0.148398 0.177448 -0.165522 7.926036 148.949418 -0.000000 0.317296 0.471132 -0.415737
0.385000 36.367232 212.858483 -0.000000 0.148593 0.177343 -0.165521 8.238041 149.184744 -0.000000 0.317117 0.471231 -0.415749
0.390000 36.258219 212.417651 -0.000000 0.148789 0.177258 -0.165535 8.508393 149.353990 -0.000000 0.316938 0.471332 -0.415755
0.395000 36.215193 211.999212 -0.000000 0.148971 0.177166 -0.165534 8.726524 149.441886 -0.000000 0.316753 0.471426 -0.415761
